# xmcd
#
# Track frame offsets:
#	180
#	14628
#	33828
#	49277
#	62178
#	78377
#	101027
#	138527
#	153827
#	168377
#	197327
#	212627
#	237602
#
# Disc length: 3508 seconds
#
# Revision: 1
# Processed by: cddbd v1.5.2PL0 Copyright (c) Steve Scherf et al.
# Submitted via: audiograbber 1.83.01
#
DISCID=b20db20d
DTITLE=Fitzgerald Kusz  - allmächd
DYEAR=1995
DGENRE=Mundart
TTITLE0=blasdik
TTITLE1=allmächd
TTITLE2=keeskoung
TTITLE3=naggedde weiwä
TTITLE4=liebe
TTITLE5=rolloo
TTITLE6=volksmusigg
TTITLE7=nämberch
TTITLE8=glubb
TTITLE9=roodfoän
TTITLE10=dreeck
TTITLE11=dooch und nachd
TTITLE12=roodlo
EXTD=
EXTT0=
EXTT1=
EXTT2=
EXTT3=
EXTT4=
EXTT5=
EXTT6=
EXTT7=
EXTT8=
EXTT9=
EXTT10=
EXTT11=
EXTT12=
PLAYORDER=
